HIERARCHY
ROOT Pelvis
{
        OFFSET 0.0 0.0 0.9036999940872192
        CHANNELS 6 Xposition Yposition Zposition Xrotation Yrotation Zrotation
        JOINT L_Hip
        {
                OFFSET -0.006800000090152025 0.06949999928474426 -0.09139999747276306
                CHANNELS 3 Xrotation Yrotation Zrotation
                JOINT L_Knee
                {
                        OFFSET -0.0044999998062849045 0.034299999475479126 -0.3752000033855438
                        CHANNELS 3 Xrotation Yrotation Zrotation
                        JOINT L_Ankle
                        {
                                OFFSET -0.043699998408555984 -0.01360000018030405 -0.39800000190734863
                                CHANNELS 3 Xrotation Yrotation Zrotation
                                JOINT L_Toe
                                {
                                        OFFSET 0.1193000003695488 0.026399999856948853 -0.055799998342990875
                                        CHANNELS 3 Xrotation Yrotation Zrotation
                                        End Site
                                        {
                                                OFFSET 0.000000 0.000000 0.000000
                                        }
                                }
                        }
                }
        }
        JOINT R_Hip
        {
                OFFSET -0.00430000014603138 -0.06769999861717224 -0.09049999713897705
                CHANNELS 3 Xrotation Yrotation Zrotation
                JOINT R_Knee
                {
                        OFFSET -0.008899999782443047 -0.03830000013113022 -0.38260000944137573
                        CHANNELS 3 Xrotation Yrotation Zrotation
                        JOINT R_Ankle
                        {
                                OFFSET -0.04230000078678131 0.015799999237060547 -0.3984000086784363
                                CHANNELS 3 Xrotation Yrotation Zrotation
                                JOINT R_Toe
                                {
                                        OFFSET 0.12330000102519989 -0.02539999969303608 -0.04809999838471413
                                        CHANNELS 3 Xrotation Yrotation Zrotation
                                        End Site
                                        {
                                                OFFSET 0.000000 0.000000 0.000000
                                        }
                                }
                        }
                }
        }
        JOINT Torso
        {
                OFFSET -0.02669999934732914 -0.0024999999441206455 0.10899999737739563
                CHANNELS 3 Xrotation Yrotation Zrotation
                JOINT Spine
                {
                        OFFSET 0.0010999999940395355 0.005499999970197678 0.13519999384880066
                        CHANNELS 3 Xrotation Yrotation Zrotation
                        JOINT Chest
                        {
                                OFFSET 0.02539999969303608 0.001500000013038516 0.05290000140666962
                                CHANNELS 3 Xrotation Yrotation Zrotation
                                JOINT Neck
                                {
                                        OFFSET -0.042899999767541885 -0.00279999990016222 0.21389999985694885
                                        CHANNELS 3 Xrotation Yrotation Zrotation
                                        JOINT Head
                                        {
                                                OFFSET 0.05130000039935112 0.005200000014156103 0.06499999761581421
                                                CHANNELS 3 Xrotation Yrotation Zrotation
                                                End Site
                                                {
                                                        OFFSET 0.000000 0.000000 0.000000
                                                }
                                        }
                                }
                                JOINT L_Thorax
                                {
                                        OFFSET -0.0340999998152256 0.07880000025033951 0.1216999962925911
                                        CHANNELS 3 Xrotation Yrotation Zrotation
                                        JOINT L_Shoulder
                                        {
                                                OFFSET -0.008899999782443047 0.09099999815225601 0.030500000342726707
                                                CHANNELS 3 Xrotation Yrotation Zrotation
                                                JOINT L_Elbow
                                                {
                                                        OFFSET -0.027500003576278687 -0.012800000607967377 -0.25960004329681396
                                                        CHANNELS 3 Xrotation Yrotation Zrotation
                                                        JOINT L_Wrist
                                                        {
                                                                OFFSET 0.24920006096363068 0.009000012651085854 -0.001200003083795309
                                                                CHANNELS 3 Xrotation Yrotation Zrotation
                                                                JOINT L_Hand
                                                                {
                                                                        OFFSET 0.08400002121925354 -0.00820000097155571 -0.014900002628564835
                                                                        CHANNELS 3 Xrotation Yrotation Zrotation
                                                                        End Site
                                                                        {
                                                                                OFFSET 0.000000 0.000000 0.000000
                                                                        }
                                                                }
                                                        }
                                                }
                                        }
                                }
                                JOINT R_Thorax
                                {
                                        OFFSET -0.038600001484155655 -0.08179999887943268 0.11879999935626984
                                        CHANNELS 3 Xrotation Yrotation Zrotation
                                        JOINT R_Shoulder
                                        {
                                                OFFSET -0.009100000374019146 -0.09600000083446503 0.032600000500679016
                                                CHANNELS 3 Xrotation Yrotation Zrotation
                                                JOINT R_Elbow
                                                {
                                                        OFFSET -0.021400002762675285 0.013300006277859211 -0.25370001792907715
                                                        CHANNELS 3 Xrotation Yrotation Zrotation
                                                        JOINT R_Wrist
                                                        {
                                                                OFFSET 0.25530004501342773 -0.007799996063113213 -0.005599998403340578
                                                                CHANNELS 3 Xrotation Yrotation Zrotation
                                                                JOINT R_Hand
                                                                {
                                                                        OFFSET 0.08460003137588501 0.006099998950958252 -0.010300003923475742
                                                                        CHANNELS 3 Xrotation Yrotation Zrotation
                                                                        End Site
                                                                        {
                                                                                OFFSET 0.000000 0.000000 0.000000
                                                                        }
                                                                }
                                                        }
                                                }
                                        }
                                }
                        }
                }
        }
}
MOTION
Frames: 5
Frame Time: 0.03333333333333333
-0.26659744371475697 0.38775234845231743 0.9895892937426423 -1.140766862079052 -4.018259042801618 83.15990725994095 0.4562231370159754 6.571830394328422 6.8104219872065075 3.1848557758781726 -5.91391617419659 -0.9864847628291098 -0.22351005767591842 -0.6469360363425387 10.900186298342383 0.0 0.0 0.0 1.7005758504810098 2.4661002368022427 -1.470642268440082 -0.2864515218022833 1.2536377614498313 1.6889661642954432 5.59532793597904 -0.32132143028296845 -4.525988744769728 0.0 0.0 0.0 0.03150806536458262 5.3636781215945 0.345725309542117 1.685792251695316 1.6273188103068308 -3.2576319852910607 1.0850034576893417 -2.265809012275801 0.5544523028136795 0.08780447974684498 1.692452140682992 -0.028491521631096885 3.17114074970411 -11.460695127104723 1.1511694223255837 -20.742752886103702 -2.775728908347686 0.5634092634004253 33.62980172011446 10.326966543524067 -15.634233203853482 -6.337966161034524 66.66424484183254 -12.388694638241361 -0.9205052285408332 -10.504587053432736 -4.447736760501448 0.0 0.0 0.0 19.728365248772672 -3.0470554603093105 4.144114049251365 -34.99681353464525 10.739497747924636 15.486583499021267 -1.8315748502882219 58.09480217853319 0.8638170139400235 6.390377346747396 -12.689900304991186 7.719743066492041 0.0 0.0 0.0
-0.26748622360413105 0.3885006313389989 0.9907076587353314 -0.8298288573849566 -4.254102497436718 83.43236518865442 0.0933784644048887 6.973125958754408 6.190726619424444 2.321100908369383 -5.867230785565053 0.8219655951435078 -0.3386271073644325 0.6656260984656004 11.519506990425036 0.0 0.0 0.0 1.1927004735566764 3.092067989257061 -0.9509977486991649 -0.46391230740747236 1.1029643427546612 1.1963451940676832 5.783128581650871 -0.21448127866055358 -3.939266198998625 0.0 0.0 0.0 -0.06451647815071461 5.233954670284613 0.39498677492945644 1.526559169608593 1.3889944466507969 -2.990274395322601 1.408849393024003 -1.4829628527468148 0.6826755837980732 -0.8816207181487449 2.0849886401458653 0.37396070989529917 4.027221175565829 -12.474478569848097 -0.30192934368230795 -20.492491071989836 -2.180777062361426 -0.46797204765716394 33.281184595585415 6.377778354837886 -13.733009906331198 -9.897544557860527 69.05607130670492 -6.541994219942065 -10.856946486038598 -16.485574789376088 -6.974045768463684 0.0 0.0 0.0 19.39835573880312 -3.1167128057216718 4.548493222322467 -34.75222700258435 10.710266521589306 15.539197153868264 -3.850025002713793 58.91308391876829 -0.5379619291440683 5.897475076110884 -14.667911552444334 9.03226629665717 0.0 0.0 0.0
-0.269848346102315 0.38937400322138327 0.9896718401298864 -0.49839570795202737 -4.021837465662699 83.97689279035748 -0.9869964170720744 6.818461040285559 4.789720178471758 3.046215216250615 -5.974268932158865 1.1280465458044855 -2.6838534957860585 1.8111469613996642 11.16892502122587 0.0 0.0 0.0 0.3208968283105416 3.031174352145532 -1.2844699020649617 0.1208294457990198 0.8716219917980728 0.9377853400685836 5.778460931169592 -0.018571383558251074 -3.7896212798653433 0.0 0.0 0.0 0.3752550931848173 5.36299637413357 0.8549942030843914 1.2550115170413798 0.2902849467723762 -3.3529522473206375 0.936178674102694 -0.7214376544675725 0.9088579416533501 -0.81990868908081 1.937754268989515 -0.046910866441415476 3.8454434087037614 -12.937691109385511 -0.8060993109247929 -21.215079049942766 -2.1034609590181255 -0.8705852833040076 34.5734422142467 7.4128228691854545 -14.385677279463847 -12.200099882493932 67.39353270861423 -9.4367243704138 -14.03238574539053 -16.8942002301744 -4.595390010590992 0.0 0.0 0.0 19.79783450119559 -4.472413910174831 2.9244897403048467 -34.87019013910205 11.750080594118854 14.816161650930358 -3.4190139860649995 58.36921171685946 -0.10902612336465906 6.643267261255688 -15.251008434778031 7.8358581944239205 0.0 0.0 0.0
-0.27023860449921094 0.3899555553620869 0.9896139383825066 -0.47480488340465365 -4.098907132290837 84.14607710598337 -1.0141938629230867 6.974924761619992 4.666209154129183 2.9654418076706275 -6.026690579938063 1.0994940934197475 -2.693874397495762 1.8654254199198177 11.134878510874277 0.0 0.0 0.0 0.2555320075516939 3.2945291233858214 -1.318711686868907 0.09691905604339449 0.6673811780291407 0.8821691050747471 5.582898978245322 -0.020609811792820256 -3.7834526682357974 0.0 0.0 0.0 0.4705700446050977 5.52825600317418 0.9441638333523404 1.2260185217975195 0.09326903016632136 -3.349248124648381 0.8237856573519715 -0.7413345595056609 0.8198044449669215 -0.8408718984988885 2.0833872748783633 -0.12173480537585249 3.942915694378147 -12.900712087363466 -0.7833075979745144 -21.06723908858487 -1.9533461890887134 -1.0201884751388564 34.60388800494902 7.339891582104675 -14.285950078439837 -12.944730860799135 67.14351729352447 -10.082243474712913 -14.422933518447952 -16.69687084746888 -4.281043321713227 0.0 0.0 0.0 19.75180616938184 -4.470612188851329 2.813269979707298 -34.74271103617396 11.979499667225065 14.882306715901622 -3.9879217158797093 58.29181219947592 -0.22649967682747074 6.410791480471644 -15.148265981721849 8.034900334805494 0.0 0.0 0.0
-0.2704950963249914 0.38970203739925946 0.9896592273771568 -0.4512246204196862 -3.994486009743982 83.98260348919938 -1.153709169317955 6.8563095149188555 4.7356193308095555 3.104412697247129 -6.018834774558003 1.2248377350590498 -2.694178171765772 1.87108364602711 11.117772610653924 0.0 0.0 0.0 0.2200399397622803 3.04214499737263 -1.2355692183301608 0.1254846962298182 0.8725086957663896 0.8345169157644431 5.617364877143779 -0.24291592433945264 -3.7644365357721337 0.0 0.0 0.0 0.46833258436158587 5.5177718969672105 1.0924823522089524 1.2854349284941073 0.004627080756421318 -3.1659567884799515 0.815589423644619 -0.7382700272186234 0.7706496945432089 -0.8981384325654036 2.1555286436795695 -0.10007801269090047 3.9027886755184484 -12.975759064156794 -0.8233882080643695 -21.115933408436685 -2.0251154389977244 -1.0973957989011363 34.29754321529352 7.09437991137721 -14.349612037135746 -12.734793963600882 67.67299492140278 -9.28994197890768 -14.447433946072826 -16.871634407421986 -4.184357701046703 0.0 0.0 0.0 19.710317118800585 -4.566009956589266 2.6811050599088526 -34.575048489508205 12.030620849822633 14.813055259450636 -4.331740337273306 58.360212567474036 -0.600171307751352 5.883166570450166 -15.166868175918852 7.921459965507468 0.0 0.0 0.0
